<svg preserveAspectRatio="none" overflow="visible" style="display: block;" width="687" height="588" viewBox="0 0 687 588" fill="none" xmlns="http://www.w3.org/2000/svg">
<path id="Vector" d="M193.231 0L58.8715 29.8345C42.1433 33.4621 27.1687 42.7199 16.4525 56.0594C5.73639 69.3989 -0.0713838 86.011 0.000662315 103.117V465.765C0.000662315 488.68 10.2741 510.018 28.1479 524.34C46.0217 538.662 69.0483 544.101 91.4631 539.08L193.296 516.487V0H193.231ZM429.423 65.6552L257.641 3.21839V522.345L429.423 584.782V65.6552ZM658.916 63.6598C650.156 56.5949 639.911 51.5996 628.947 49.0472C617.984 46.4947 606.584 46.4511 595.601 48.9195L493.769 71.5126V588L628.128 558.166C644.857 554.538 659.831 545.28 670.547 531.941C681.264 518.601 687.071 501.989 686.999 484.883V122.234C687.031 110.985 684.519 99.8741 679.65 89.7313C674.782 79.5884 667.715 70.676 658.916 63.6598Z" fill="#3E6E72" fill-opacity="0.07"/>
</svg>
